<mxfile host="app.diagrams.net" modified="2021-05-07T09:56:27.972Z" agent="5.0 (Windows NT 6.3; Win64; x64) AppleWebKit/537.36 (KHTML, like Gecko) Chrome/90.0.4430.93 Safari/537.36" etag="nKrOdhjyvD7_thlSxWKG" version="14.6.10" type="github">
  <diagram name="Page-1" id="c4acf3e9-155e-7222-9cf6-157b1a14988f">
    <mxGraphModel dx="868" dy="450" grid="1" gridSize="10" guides="1" tooltips="1" connect="1" arrows="1" fold="1" page="1" pageScale="1" pageWidth="850" pageHeight="1100" background="#ffffff" math="0" shadow="0">
      <root>
        <mxCell id="0" />
        <mxCell id="1" parent="0" />
        <mxCell id="sKjVEHlpq3mz64nsVN_3-51" value="1" style="endArrow=open;html=1;endSize=12;startArrow=diamondThin;startSize=14;startFill=1;edgeStyle=orthogonalEdgeStyle;align=left;verticalAlign=bottom;rounded=0;entryX=0.5;entryY=1;entryDx=0;entryDy=0;exitX=0.171;exitY=-0.005;exitDx=0;exitDy=0;exitPerimeter=0;" edge="1" parent="1" source="sKjVEHlpq3mz64nsVN_3-26" target="sKjVEHlpq3mz64nsVN_3-1">
          <mxGeometry x="-1" y="3" relative="1" as="geometry">
            <mxPoint x="220" y="450" as="sourcePoint" />
            <mxPoint x="60" y="450" as="targetPoint" />
            <Array as="points">
              <mxPoint x="119" y="450" />
            </Array>
          </mxGeometry>
        </mxCell>
        <mxCell id="sKjVEHlpq3mz64nsVN_3-55" style="edgeStyle=none;rounded=0;orthogonalLoop=1;jettySize=auto;html=1;entryX=0.456;entryY=-0.027;entryDx=0;entryDy=0;exitX=0;exitY=0.75;exitDx=0;exitDy=0;entryPerimeter=0;" edge="1" parent="1" source="sKjVEHlpq3mz64nsVN_3-21" target="17acba5748e5396b-20">
          <mxGeometry relative="1" as="geometry">
            <Array as="points">
              <mxPoint x="283" y="223" />
            </Array>
          </mxGeometry>
        </mxCell>
        <mxCell id="17acba5748e5396b-20" value="Address" style="swimlane;html=1;fontStyle=0;childLayout=stackLayout;horizontal=1;startSize=26;fillColor=none;horizontalStack=0;resizeParent=1;resizeLast=0;collapsible=1;marginBottom=0;swimlaneFillColor=#ffffff;rounded=0;shadow=0;comic=0;labelBackgroundColor=none;strokeWidth=1;fontFamily=Verdana;fontSize=10;align=center;" parent="1" vertex="1">
          <mxGeometry x="210" y="280" width="160" height="110" as="geometry" />
        </mxCell>
        <mxCell id="17acba5748e5396b-21" value="is_address()" style="text;html=1;strokeColor=none;fillColor=none;align=left;verticalAlign=top;spacingLeft=4;spacingRight=4;whiteSpace=wrap;overflow=hidden;rotatable=0;points=[[0,0.5],[1,0.5]];portConstraint=eastwest;" parent="17acba5748e5396b-20" vertex="1">
          <mxGeometry y="26" width="160" height="26" as="geometry" />
        </mxCell>
        <mxCell id="sKjVEHlpq3mz64nsVN_3-56" style="edgeStyle=none;rounded=0;orthogonalLoop=1;jettySize=auto;html=1;exitX=0.5;exitY=0;exitDx=0;exitDy=0;entryX=0.5;entryY=0;entryDx=0;entryDy=0;" edge="1" parent="1" target="17acba5748e5396b-30">
          <mxGeometry relative="1" as="geometry">
            <mxPoint x="460" y="250" as="sourcePoint" />
          </mxGeometry>
        </mxCell>
        <mxCell id="17acba5748e5396b-30" value="Email" style="swimlane;html=1;fontStyle=0;childLayout=stackLayout;horizontal=1;startSize=26;fillColor=none;horizontalStack=0;resizeParent=1;resizeLast=0;collapsible=1;marginBottom=0;swimlaneFillColor=#ffffff;rounded=0;shadow=0;comic=0;labelBackgroundColor=none;strokeWidth=1;fontFamily=Verdana;fontSize=10;align=center;" parent="1" vertex="1">
          <mxGeometry x="380" y="280" width="160" height="110" as="geometry" />
        </mxCell>
        <mxCell id="17acba5748e5396b-31" value="is_email()" style="text;html=1;strokeColor=none;fillColor=none;align=left;verticalAlign=top;spacingLeft=4;spacingRight=4;whiteSpace=wrap;overflow=hidden;rotatable=0;points=[[0,0.5],[1,0.5]];portConstraint=eastwest;" parent="17acba5748e5396b-30" vertex="1">
          <mxGeometry y="26" width="160" height="26" as="geometry" />
        </mxCell>
        <mxCell id="sKjVEHlpq3mz64nsVN_3-1" value="Name" style="swimlane;html=1;fontStyle=0;childLayout=stackLayout;horizontal=1;startSize=26;fillColor=none;horizontalStack=0;resizeParent=1;resizeLast=0;collapsible=1;marginBottom=0;swimlaneFillColor=#ffffff;rounded=0;shadow=0;comic=0;labelBackgroundColor=none;strokeWidth=1;fontFamily=Verdana;fontSize=10;align=center;" vertex="1" parent="1">
          <mxGeometry x="40" y="280" width="160" height="60" as="geometry" />
        </mxCell>
        <mxCell id="sKjVEHlpq3mz64nsVN_3-4" value="is_name()" style="text;html=1;strokeColor=none;fillColor=none;align=left;verticalAlign=top;spacingLeft=4;spacingRight=4;whiteSpace=wrap;overflow=hidden;rotatable=0;points=[[0,0.5],[1,0.5]];portConstraint=eastwest;" vertex="1" parent="sKjVEHlpq3mz64nsVN_3-1">
          <mxGeometry y="26" width="160" height="26" as="geometry" />
        </mxCell>
        <mxCell id="sKjVEHlpq3mz64nsVN_3-5" value="Birthday" style="swimlane;html=1;fontStyle=0;childLayout=stackLayout;horizontal=1;startSize=26;fillColor=none;horizontalStack=0;resizeParent=1;resizeLast=0;collapsible=1;marginBottom=0;swimlaneFillColor=#ffffff;rounded=0;shadow=0;comic=0;labelBackgroundColor=none;strokeWidth=1;fontFamily=Verdana;fontSize=10;align=center;" vertex="1" parent="1">
          <mxGeometry x="550" y="280" width="160" height="110" as="geometry" />
        </mxCell>
        <mxCell id="sKjVEHlpq3mz64nsVN_3-6" value="is_birthday()" style="text;html=1;strokeColor=none;fillColor=none;align=left;verticalAlign=top;spacingLeft=4;spacingRight=4;whiteSpace=wrap;overflow=hidden;rotatable=0;points=[[0,0.5],[1,0.5]];portConstraint=eastwest;" vertex="1" parent="sKjVEHlpq3mz64nsVN_3-5">
          <mxGeometry y="26" width="160" height="26" as="geometry" />
        </mxCell>
        <mxCell id="sKjVEHlpq3mz64nsVN_3-9" value="Phone" style="swimlane;html=1;fontStyle=0;childLayout=stackLayout;horizontal=1;startSize=26;fillColor=none;horizontalStack=0;resizeParent=1;resizeLast=0;collapsible=1;marginBottom=0;swimlaneFillColor=#ffffff;rounded=0;shadow=0;comic=0;labelBackgroundColor=none;strokeWidth=1;fontFamily=Verdana;fontSize=10;align=center;" vertex="1" parent="1">
          <mxGeometry x="720" y="280" width="160" height="110" as="geometry" />
        </mxCell>
        <mxCell id="sKjVEHlpq3mz64nsVN_3-10" value="is_phone()" style="text;html=1;strokeColor=none;fillColor=none;align=left;verticalAlign=top;spacingLeft=4;spacingRight=4;whiteSpace=wrap;overflow=hidden;rotatable=0;points=[[0,0.5],[1,0.5]];portConstraint=eastwest;" vertex="1" parent="sKjVEHlpq3mz64nsVN_3-9">
          <mxGeometry y="26" width="160" height="26" as="geometry" />
        </mxCell>
        <mxCell id="sKjVEHlpq3mz64nsVN_3-13" value="Notes" style="swimlane;html=1;fontStyle=0;childLayout=stackLayout;horizontal=1;startSize=26;fillColor=none;horizontalStack=0;resizeParent=1;resizeLast=0;collapsible=1;marginBottom=0;swimlaneFillColor=#ffffff;rounded=0;shadow=0;comic=0;labelBackgroundColor=none;strokeWidth=1;fontFamily=Verdana;fontSize=10;align=center;" vertex="1" parent="1">
          <mxGeometry x="900" y="280" width="160" height="110" as="geometry" />
        </mxCell>
        <mxCell id="sKjVEHlpq3mz64nsVN_3-14" value="is_note()" style="text;html=1;strokeColor=none;fillColor=none;align=left;verticalAlign=top;spacingLeft=4;spacingRight=4;whiteSpace=wrap;overflow=hidden;rotatable=0;points=[[0,0.5],[1,0.5]];portConstraint=eastwest;" vertex="1" parent="sKjVEHlpq3mz64nsVN_3-13">
          <mxGeometry y="26" width="160" height="26" as="geometry" />
        </mxCell>
        <mxCell id="sKjVEHlpq3mz64nsVN_3-53" style="edgeStyle=none;rounded=0;orthogonalLoop=1;jettySize=auto;html=1;exitX=0.5;exitY=1;exitDx=0;exitDy=0;entryX=0.5;entryY=0;entryDx=0;entryDy=0;" edge="1" parent="1" source="sKjVEHlpq3mz64nsVN_3-17" target="sKjVEHlpq3mz64nsVN_3-21">
          <mxGeometry relative="1" as="geometry" />
        </mxCell>
        <mxCell id="sKjVEHlpq3mz64nsVN_3-17" value="AddressBook" style="swimlane;html=1;fontStyle=0;childLayout=stackLayout;horizontal=1;startSize=26;fillColor=none;horizontalStack=0;resizeParent=1;resizeLast=0;collapsible=1;marginBottom=0;swimlaneFillColor=#ffffff;rounded=0;shadow=0;comic=0;labelBackgroundColor=none;strokeWidth=1;fontFamily=Verdana;fontSize=10;align=center;" vertex="1" parent="1">
          <mxGeometry x="450" y="10" width="160" height="110" as="geometry" />
        </mxCell>
        <mxCell id="sKjVEHlpq3mz64nsVN_3-18" value="+ field: type" style="text;html=1;strokeColor=none;fillColor=none;align=left;verticalAlign=top;spacingLeft=4;spacingRight=4;whiteSpace=wrap;overflow=hidden;rotatable=0;points=[[0,0.5],[1,0.5]];portConstraint=eastwest;" vertex="1" parent="sKjVEHlpq3mz64nsVN_3-17">
          <mxGeometry y="26" width="160" height="26" as="geometry" />
        </mxCell>
        <mxCell id="sKjVEHlpq3mz64nsVN_3-19" value="+ field: type" style="text;html=1;strokeColor=none;fillColor=none;align=left;verticalAlign=top;spacingLeft=4;spacingRight=4;whiteSpace=wrap;overflow=hidden;rotatable=0;points=[[0,0.5],[1,0.5]];portConstraint=eastwest;" vertex="1" parent="sKjVEHlpq3mz64nsVN_3-17">
          <mxGeometry y="52" width="160" height="26" as="geometry" />
        </mxCell>
        <mxCell id="sKjVEHlpq3mz64nsVN_3-20" value="+ field: type" style="text;html=1;strokeColor=none;fillColor=none;align=left;verticalAlign=top;spacingLeft=4;spacingRight=4;whiteSpace=wrap;overflow=hidden;rotatable=0;points=[[0,0.5],[1,0.5]];portConstraint=eastwest;" vertex="1" parent="sKjVEHlpq3mz64nsVN_3-17">
          <mxGeometry y="78" width="160" height="26" as="geometry" />
        </mxCell>
        <mxCell id="sKjVEHlpq3mz64nsVN_3-21" value="Field" style="swimlane;html=1;fontStyle=0;childLayout=stackLayout;horizontal=1;startSize=26;fillColor=none;horizontalStack=0;resizeParent=1;resizeLast=0;collapsible=1;marginBottom=0;swimlaneFillColor=#ffffff;rounded=0;shadow=0;comic=0;labelBackgroundColor=none;strokeWidth=1;fontFamily=Verdana;fontSize=10;align=center;" vertex="1" parent="1">
          <mxGeometry x="450" y="140" width="160" height="110" as="geometry" />
        </mxCell>
        <mxCell id="sKjVEHlpq3mz64nsVN_3-23" value="value()" style="text;html=1;strokeColor=none;fillColor=none;align=left;verticalAlign=top;spacingLeft=4;spacingRight=4;whiteSpace=wrap;overflow=hidden;rotatable=0;points=[[0,0.5],[1,0.5]];portConstraint=eastwest;" vertex="1" parent="sKjVEHlpq3mz64nsVN_3-21">
          <mxGeometry y="26" width="160" height="26" as="geometry" />
        </mxCell>
        <mxCell id="sKjVEHlpq3mz64nsVN_3-35" style="edgeStyle=orthogonalEdgeStyle;rounded=0;orthogonalLoop=1;jettySize=auto;html=1;" edge="1" parent="1">
          <mxGeometry relative="1" as="geometry">
            <mxPoint x="300" y="390" as="targetPoint" />
            <mxPoint x="300" y="880" as="sourcePoint" />
            <Array as="points">
              <mxPoint x="300" y="840" />
            </Array>
          </mxGeometry>
        </mxCell>
        <mxCell id="sKjVEHlpq3mz64nsVN_3-36" style="edgeStyle=orthogonalEdgeStyle;rounded=0;orthogonalLoop=1;jettySize=auto;html=1;entryX=0.5;entryY=1;entryDx=0;entryDy=0;" edge="1" parent="1" target="17acba5748e5396b-30">
          <mxGeometry relative="1" as="geometry">
            <mxPoint x="400" y="390" as="targetPoint" />
            <mxPoint x="300" y="845" as="sourcePoint" />
            <Array as="points">
              <mxPoint x="300" y="880" />
              <mxPoint x="460" y="880" />
            </Array>
          </mxGeometry>
        </mxCell>
        <mxCell id="sKjVEHlpq3mz64nsVN_3-37" style="edgeStyle=orthogonalEdgeStyle;rounded=0;orthogonalLoop=1;jettySize=auto;html=1;entryX=0.5;entryY=1;entryDx=0;entryDy=0;" edge="1" parent="1" target="sKjVEHlpq3mz64nsVN_3-5">
          <mxGeometry relative="1" as="geometry">
            <mxPoint x="300" y="845" as="sourcePoint" />
            <Array as="points">
              <mxPoint x="300" y="880" />
              <mxPoint x="630" y="880" />
            </Array>
          </mxGeometry>
        </mxCell>
        <mxCell id="sKjVEHlpq3mz64nsVN_3-26" value="Record" style="swimlane;fontStyle=1;align=center;verticalAlign=top;childLayout=stackLayout;horizontal=1;startSize=26;horizontalStack=0;resizeParent=1;resizeParentMax=0;resizeLast=0;collapsible=1;marginBottom=0;" vertex="1" parent="1">
          <mxGeometry x="90" y="530" width="170" height="718" as="geometry" />
        </mxCell>
        <mxCell id="sKjVEHlpq3mz64nsVN_3-27" value="name&#xa;phone&#xa;birthday&#xa;email&#xa;address&#xa;notes&#xa;data" style="text;strokeColor=none;fillColor=none;align=left;verticalAlign=top;spacingLeft=4;spacingRight=4;overflow=hidden;rotatable=0;points=[[0,0.5],[1,0.5]];portConstraint=eastwest;" vertex="1" parent="sKjVEHlpq3mz64nsVN_3-26">
          <mxGeometry y="26" width="170" height="114" as="geometry" />
        </mxCell>
        <mxCell id="sKjVEHlpq3mz64nsVN_3-28" value="" style="line;strokeWidth=1;fillColor=none;align=left;verticalAlign=middle;spacingTop=-1;spacingLeft=3;spacingRight=3;rotatable=0;labelPosition=right;points=[];portConstraint=eastwest;" vertex="1" parent="sKjVEHlpq3mz64nsVN_3-26">
          <mxGeometry y="140" width="170" height="8" as="geometry" />
        </mxCell>
        <mxCell id="sKjVEHlpq3mz64nsVN_3-29" value="__add_item_phone()&#xa;__add_item_email()&#xa;__add_item_notes()&#xa; __add_phone()&#xa;__add_birthday()&#xa; __add_email()&#xa;__add_address()&#xa; __add_notes()&#xa;__change_phone()&#xa; __change_birthday()&#xa; __change_email()&#xa;__change_address()&#xa;__change_notes()&#xa;__delete_phone()&#xa;__delete_birthday()&#xa;__delete_email()&#xa;__delete_address()&#xa;__delete_notes()&#xa;&#xa;addcontact()&#xa; addnotes()&#xa;changecontact()&#xa;changenotes()&#xa;deletecontact()&#xa;deletenotes()&#xa;findcontact()&#xa;hello()&#xa;datatable()&#xa;showall()&#xa;search()&#xa;ausgang()&#xa;day_to_birthday()&#xa;help()&#xa;givepeoplebirthday()&#xa;findname()&#xa;findphone()&#xa;findbirthday()&#xa;findemail()&#xa;findaddress()&#xa;findbytag()" style="text;strokeColor=none;fillColor=none;align=left;verticalAlign=top;spacingLeft=4;spacingRight=4;overflow=hidden;rotatable=0;points=[[0,0.5],[1,0.5]];portConstraint=eastwest;" vertex="1" parent="sKjVEHlpq3mz64nsVN_3-26">
          <mxGeometry y="148" width="170" height="570" as="geometry" />
        </mxCell>
        <mxCell id="sKjVEHlpq3mz64nsVN_3-46" value="1" style="endArrow=open;html=1;endSize=12;startArrow=diamondThin;startSize=14;startFill=0;edgeStyle=orthogonalEdgeStyle;align=left;verticalAlign=bottom;rounded=0;entryX=0.5;entryY=1;entryDx=0;entryDy=0;" edge="1" parent="sKjVEHlpq3mz64nsVN_3-26" target="sKjVEHlpq3mz64nsVN_3-9">
          <mxGeometry x="-1" y="3" relative="1" as="geometry">
            <mxPoint x="170" y="350" as="sourcePoint" />
            <mxPoint x="330" y="350" as="targetPoint" />
          </mxGeometry>
        </mxCell>
        <mxCell id="sKjVEHlpq3mz64nsVN_3-43" style="edgeStyle=none;rounded=0;orthogonalLoop=1;jettySize=auto;html=1;exitX=0;exitY=0.5;exitDx=0;exitDy=0;" edge="1" parent="1">
          <mxGeometry relative="1" as="geometry">
            <mxPoint x="260" y="850" as="sourcePoint" />
            <mxPoint x="260" y="850" as="targetPoint" />
          </mxGeometry>
        </mxCell>
        <mxCell id="sKjVEHlpq3mz64nsVN_3-52" style="edgeStyle=none;rounded=0;orthogonalLoop=1;jettySize=auto;html=1;" edge="1" parent="1">
          <mxGeometry relative="1" as="geometry">
            <mxPoint x="996" y="390" as="targetPoint" />
            <mxPoint x="300" y="880" as="sourcePoint" />
            <Array as="points">
              <mxPoint x="996" y="880" />
            </Array>
          </mxGeometry>
        </mxCell>
        <mxCell id="sKjVEHlpq3mz64nsVN_3-54" style="edgeStyle=none;rounded=0;orthogonalLoop=1;jettySize=auto;html=1;exitX=-0.012;exitY=1.077;exitDx=0;exitDy=0;entryX=0.5;entryY=0;entryDx=0;entryDy=0;exitPerimeter=0;" edge="1" parent="1" source="sKjVEHlpq3mz64nsVN_3-23" target="sKjVEHlpq3mz64nsVN_3-1">
          <mxGeometry relative="1" as="geometry">
            <Array as="points">
              <mxPoint x="130" y="194" />
              <mxPoint x="120" y="194" />
            </Array>
          </mxGeometry>
        </mxCell>
        <mxCell id="sKjVEHlpq3mz64nsVN_3-57" style="edgeStyle=none;rounded=0;orthogonalLoop=1;jettySize=auto;html=1;exitX=1;exitY=1.231;exitDx=0;exitDy=0;exitPerimeter=0;" edge="1" parent="1" source="sKjVEHlpq3mz64nsVN_3-23" target="sKjVEHlpq3mz64nsVN_3-5">
          <mxGeometry relative="1" as="geometry">
            <Array as="points">
              <mxPoint x="630" y="198" />
            </Array>
          </mxGeometry>
        </mxCell>
        <mxCell id="sKjVEHlpq3mz64nsVN_3-58" style="edgeStyle=none;rounded=0;orthogonalLoop=1;jettySize=auto;html=1;exitX=1;exitY=0.846;exitDx=0;exitDy=0;exitPerimeter=0;" edge="1" parent="1" source="sKjVEHlpq3mz64nsVN_3-23" target="sKjVEHlpq3mz64nsVN_3-9">
          <mxGeometry relative="1" as="geometry">
            <Array as="points">
              <mxPoint x="800" y="188" />
            </Array>
          </mxGeometry>
        </mxCell>
        <mxCell id="sKjVEHlpq3mz64nsVN_3-59" style="edgeStyle=none;rounded=0;orthogonalLoop=1;jettySize=auto;html=1;exitX=1;exitY=0.5;exitDx=0;exitDy=0;" edge="1" parent="1" source="sKjVEHlpq3mz64nsVN_3-23" target="sKjVEHlpq3mz64nsVN_3-13">
          <mxGeometry relative="1" as="geometry">
            <Array as="points">
              <mxPoint x="980" y="179" />
            </Array>
          </mxGeometry>
        </mxCell>
      </root>
    </mxGraphModel>
  </diagram>
</mxfile>
